<?xml version="1.0" standalone="no"?>
<!DOCTYPE svg PUBLIC "-//W3C//DTD SVG 20010904//EN"
 "http://www.w3.org/TR/2001/REC-SVG-20010904/DTD/svg10.dtd">
<svg version="1.0" xmlns="http://www.w3.org/2000/svg"
 width="144.000000pt" height="144.000000pt" viewBox="0 0 144.000000 144.000000"
 preserveAspectRatio="xMidYMid meet">
<metadata>
Created by potrace 1.14, written by Peter Selinger 2001-2017
</metadata>
<g transform="translate(0.000000,144.000000) scale(0.100000,-0.100000)"
fill="#000000" stroke="none">
<path d="M93 1425 c0 -11 12 -15 43 -15 23 0 44 4 46 10 2 5 13 7 25 4 13 -4
21 -10 18 -14 -3 -5 24 -12 60 -15 52 -6 67 -4 80 9 11 11 34 16 71 16 30 0
54 4 54 10 0 10 -296 8 -345 -3 -23 -6 -25 -5 -10 2 17 8 16 10 -11 10 -21 1
-31 -4 -31 -14z m242 -5 c8 -13 -25 -13 -45 0 -12 8 -9 10 12 10 15 0 30 -4
33 -10z"/>
<path d="M148 1383 c6 -3 12 -13 12 -24 0 -15 5 -19 18 -15 9 3 34 8 55 12 30
5 36 4 32 -8 -6 -16 -67 -38 -103 -38 -26 0 -39 19 -21 31 16 9 12 14 -18 23
-15 5 -23 3 -23 -4 0 -9 -11 -10 -36 -6 -49 10 -64 -6 -64 -63 0 -44 1 -47 29
-49 18 -1 31 3 34 12 5 12 27 14 119 11 62 -2 128 -4 146 -4 27 -1 32 -5 32
-24 0 -14 6 -24 15 -24 8 0 11 5 8 10 -7 11 16 27 37 26 10 0 8 -3 -5 -8 -19
-8 -19 -9 5 -16 l25 -9 -25 -7 -25 -7 28 -1 c15 -1 27 4 27 9 0 6 12 9 26 8
22 -3 27 1 30 26 1 15 5 30 7 33 8 7 127 -20 127 -29 0 -4 -7 -8 -16 -8 -8 0
-13 -4 -10 -8 8 -13 214 -21 271 -11 123 23 167 22 108 -3 -28 -11 -28 -12 -5
-16 13 -2 31 0 40 3 9 4 34 9 56 11 31 3 37 1 32 -11 -4 -10 1 -15 17 -16 19
-1 17 -3 -9 -14 -19 -9 -57 -13 -95 -11 -70 3 -161 -12 -153 -26 9 -14 -22 -9
-72 14 -74 33 -214 21 -214 -19 0 -8 -20 -10 -62 -9 -70 3 -100 -2 -92 -15 3
-5 -4 -9 -15 -9 -12 0 -21 -5 -21 -10 0 -7 34 -9 90 -8 50 2 90 0 90 -4 0 -5
-10 -8 -22 -8 -17 0 -19 -3 -9 -9 10 -6 12 -17 6 -37 -4 -16 -9 -81 -12 -146
-4 -101 -2 -121 15 -155 38 -76 38 -78 -20 -103 -29 -12 -78 -37 -109 -56 -52
-31 -55 -35 -51 -66 3 -18 9 -35 13 -38 11 -7 -11 -80 -24 -80 -5 0 -6 7 -3
15 3 8 9 22 12 30 3 8 2 15 -3 15 -5 0 -7 18 -5 40 2 23 0 40 -6 40 -16 0 -59
-56 -73 -95 l-13 -35 -138 0 c-130 0 -138 -1 -138 -19 0 -12 8 -21 23 -24 l22
-4 -22 -2 c-28 -1 -31 -21 -3 -21 11 0 20 -5 20 -11 0 -6 8 -8 18 -5 10 4 40
-1 68 -9 27 -8 60 -15 73 -15 35 0 22 -8 -21 -14 -20 -2 -45 -9 -55 -15 -16
-9 -15 -10 7 -11 25 -1 25 -1 3 -12 -17 -8 -25 -7 -38 6 -18 17 -30 22 -21 7
3 -5 -4 -11 -15 -14 -40 -11 -10 -24 44 -19 45 3 55 1 61 -14 4 -9 2 -22 -4
-28 -7 -7 -10 -7 -10 0 0 11 -42 34 -60 34 -22 0 -8 -18 23 -31 l32 -14 -45
-6 -45 -6 42 -1 c31 -2 46 -8 57 -24 12 -16 16 -18 16 -7 0 9 7 16 15 16 8 0
15 -6 15 -14 0 -18 -29 -28 -42 -15 -6 6 -17 7 -27 2 -9 -5 -38 -12 -65 -15
l-48 -7 27 -14 c15 -8 31 -11 36 -8 5 3 9 1 9 -3 0 -5 19 -17 43 -28 38 -18
63 -20 256 -20 163 0 215 3 218 13 3 7 -6 12 -24 12 -24 1 -26 2 -10 11 12 7
30 8 55 1 25 -7 30 -10 15 -11 -43 -2 -23 -18 30 -25 96 -11 93 -13 91 47 -7
156 -17 267 -25 268 -12 2 -46 2 -59 0 -5 0 -10 -38 -12 -83 l-3 -83 -32 0
c-25 0 -33 -4 -33 -17 0 -24 -13 -23 -35 2 -10 11 -24 20 -30 20 -14 0 -31
122 -20 140 3 5 6 39 6 75 0 60 2 67 27 82 15 10 30 22 34 28 5 6 8 6 8 -2 0
-8 9 -9 32 -2 40 11 38 11 38 0 0 -5 -14 -11 -30 -14 -17 -4 -30 -12 -30 -18
0 -7 11 -9 30 -5 23 4 32 2 37 -10 7 -19 -13 -34 -44 -34 -12 0 -25 -5 -29
-12 -5 -8 4 -9 34 -5 39 7 41 6 44 -20 5 -45 72 -37 73 9 0 22 4 23 73 26 39
2 72 -1 73 -5 3 -32 11 -97 19 -148 14 -89 15 -87 -30 -81 -34 4 -40 2 -40
-15 0 -15 7 -19 36 -19 46 0 41 -23 -7 -31 l-34 -6 33 -2 c31 -1 32 -2 32 -46
0 -43 1 -45 29 -45 34 0 40 12 33 57 -2 19 1 39 8 48 18 22 25 137 12 213 -7
37 -19 121 -27 187 -15 112 -28 145 -55 145 -15 0 -24 -89 -17 -153 5 -38 7
-70 5 -72 -2 -2 -35 -6 -73 -7 l-70 -3 -3 48 c-3 42 -1 47 18 47 30 0 80 28
80 45 0 21 -12 19 -54 -10 -20 -14 -41 -25 -47 -25 -18 0 0 73 25 100 59 64
70 100 31 100 -21 0 -25 5 -25 30 0 24 -8 34 -46 56 -33 19 -48 24 -53 15 -7
-11 -45 -11 -57 1 -3 4 0 24 6 44 l13 38 21 -27 c21 -27 76 -39 76 -17 0 6 9
10 20 10 14 0 18 5 13 18 -8 22 -20 30 -65 42 -21 6 -38 15 -38 20 0 6 -8 5
-19 -2 -15 -9 -23 -9 -36 2 -14 12 -13 16 16 46 31 32 77 49 123 46 23 -1 56
-30 67 -60 5 -12 14 -21 21 -20 10 2 12 -12 10 -54 -4 -60 0 -67 24 -44 7 8
18 16 24 18 5 1 11 32 12 68 2 42 8 70 18 78 13 12 13 13 -1 9 -11 -4 -20 3
-28 19 -9 19 -8 24 4 24 8 0 15 4 15 9 0 5 -8 7 -19 4 -10 -3 -21 2 -24 10 -4
11 1 14 17 13 13 -2 29 -7 37 -12 8 -4 23 -8 33 -9 13 0 22 -9 26 -25 4 -18
13 -26 34 -28 18 -2 26 -8 23 -17 -4 -9 3 -12 23 -11 16 1 33 5 37 10 9 9 -16
26 -39 26 -23 0 -23 26 -1 39 27 15 8 25 -25 13 -30 -10 -67 2 -57 19 4 5 1 9
-4 9 -6 0 -11 5 -11 10 0 15 99 2 128 -17 16 -10 27 -11 40 -4 16 10 16 10 0
11 -9 0 -20 4 -23 10 -7 11 100 3 145 -11 22 -6 23 -7 4 -8 -22 -1 -56 -31
-36 -31 6 0 13 4 16 9 3 5 22 9 42 9 19 0 38 2 41 5 3 3 15 2 28 -3 17 -7 25
-5 29 6 3 8 18 14 36 14 25 0 30 4 30 24 0 20 -4 23 -22 18 -14 -3 -19 -2 -14
6 4 7 13 12 19 12 7 0 13 9 14 20 1 12 -4 20 -13 20 -8 0 -12 -4 -9 -10 3 -5
-3 -10 -14 -10 -12 0 -21 4 -21 9 0 5 -18 12 -40 16 -22 4 -38 10 -35 14 2 4
26 3 53 -2 72 -15 82 -8 82 59 l0 57 -60 -6 c-38 -3 -62 -1 -67 6 -4 7 -9 4
-13 -7 -5 -16 -18 -18 -84 -19 -47 0 -73 -3 -64 -8 7 -5 9 -9 3 -10 -22 -3
-31 -6 -58 -17 -36 -15 -47 -15 -47 1 0 7 -13 18 -30 24 -27 10 -30 9 -42 -18
-8 -19 -15 -24 -20 -16 -6 9 -8 9 -8 0 0 -7 -7 -13 -15 -13 -8 0 -15 5 -15 10
0 6 -13 10 -29 10 -16 0 -34 7 -42 16 -8 10 -22 14 -41 10 -18 -3 -33 0 -43
11 -14 13 -22 14 -55 4 -21 -6 -45 -8 -54 -5 -9 3 -16 1 -16 -6 0 -6 -5 -8
-10 -5 -6 4 -17 1 -25 -5 -8 -7 -15 -9 -15 -4 0 5 -5 1 -11 -8 -8 -14 -23 -18
-69 -18 -37 0 -60 4 -63 13 -4 10 -7 10 -18 0 -17 -17 -30 -16 -23 1 3 9 -1
13 -12 13 -22 -2 -31 32 -12 44 9 6 7 9 -10 9 -12 0 -31 -6 -42 -12 -15 -10
-22 -10 -28 -2 -4 7 -34 14 -67 17 -33 2 -69 6 -80 9 -11 3 -14 3 -7 1z m152
-79 c0 -9 -7 -14 -17 -12 -25 5 -28 28 -4 28 12 0 21 -6 21 -16z m945 4 c-11
-6 -23 -16 -26 -21 -7 -11 -29 -1 -29 13 0 9 23 17 55 19 l20 0 -20 -11z m-45
-47 c0 -17 -34 -22 -49 -6 -14 13 -12 15 17 15 18 0 32 -4 32 -9z m10 -40 c0
-10 -61 -21 -74 -13 -5 3 -1 9 10 13 27 11 64 11 64 0z m-483 -548 c-3 -2 -18
-8 -35 -12 -22 -7 -34 -6 -42 4 -8 9 -5 14 12 19 22 6 22 7 5 20 -18 14 -17
15 10 18 21 2 31 -3 41 -21 7 -13 11 -26 9 -28z m-277 -303 c0 -11 -4 -20 -10
-20 -5 0 -10 9 -10 20 0 11 5 20 10 20 6 0 10 -9 10 -20z m-231 -66 c2 -2 -10
-4 -27 -4 -18 0 -32 5 -32 10 0 9 47 4 59 -6z m461 -199 c0 -10 -11 -15 -35
-15 -26 0 -33 -3 -29 -15 7 -17 -22 -20 -46 -5 -13 9 -13 10 0 10 13 0 13 1 0
10 -12 8 -10 10 10 11 14 1 31 1 38 0 6 -1 20 3 30 8 24 14 32 13 32 -4z
m-515 -46 c-32 -9 -47 -3 -26 10 7 5 23 6 35 3 19 -5 18 -6 -9 -13z m515 11
c0 -5 -12 -10 -27 -9 -25 0 -26 1 -8 9 27 12 35 12 35 0z m-493 -26 c-3 -3
-12 -4 -19 -1 -8 3 -5 6 6 6 11 1 17 -2 13 -5z m50 -10 c-3 -3 -12 -4 -19 -1
-8 3 -5 6 6 6 11 1 17 -2 13 -5z"/>
<path d="M860 1340 c0 -5 15 -10 33 -10 24 0 28 3 17 10 -20 13 -50 13 -50 0z"/>
<path d="M158 1243 c6 -2 18 -2 25 0 6 3 1 5 -13 5 -14 0 -19 -2 -12 -5z"/>
<path d="M312 1224 c-14 -16 -5 -18 17 -5 7 5 9 11 5 14 -5 3 -15 -1 -22 -9z"/>
<path d="M358 1113 c7 -3 16 -2 19 1 4 3 -2 6 -13 5 -11 0 -14 -3 -6 -6z"/>
<path d="M1128 1093 c7 -3 16 -2 19 1 4 3 -2 6 -13 5 -11 0 -14 -3 -6 -6z"/>
<path d="M1410 1030 c0 -5 5 -10 10 -10 6 0 10 5 10 10 0 6 -4 10 -10 10 -5 0
-10 -4 -10 -10z"/>
<path d="M891 854 c0 -11 3 -14 6 -6 3 7 2 16 -1 19 -3 4 -6 -2 -5 -13z"/>
<path d="M870 824 c0 -8 5 -12 10 -9 6 4 8 11 5 16 -9 14 -15 11 -15 -7z"/>
<path d="M836 745 c-9 -26 -7 -32 5 -12 6 10 9 21 6 23 -2 3 -7 -2 -11 -11z"/>
<path d="M850 655 c7 -9 15 -13 17 -11 7 7 -7 26 -19 26 -6 0 -6 -6 2 -15z"/>
<path d="M1080 583 c0 -4 5 -15 10 -23 8 -13 10 -13 10 2 0 9 -4 20 -10 23 -5
3 -10 3 -10 -2z"/>
<path d="M1089 434 c-1 -16 0 -37 1 -47 1 -16 -2 -17 -19 -8 -32 18 -48 12
-22 -8 27 -21 35 -62 20 -107 -21 -67 -33 -168 -19 -159 6 3 10 2 10 -3 0 -6
-6 -12 -13 -15 -7 -3 -13 -23 -14 -46 l-2 -41 78 0 c73 0 79 2 85 23 9 32 7
88 -3 124 -5 17 -5 35 -1 39 10 11 -21 157 -44 206 -10 20 -26 44 -37 54 -18
16 -19 16 -20 -12z"/>
<path d="M1381 363 c-1 -7 -7 -13 -15 -13 -9 0 -16 -13 -19 -32 l-4 -33 -1 32
c-2 31 -3 31 -58 35 -31 1 -57 2 -59 0 -2 -2 4 -21 14 -43 15 -38 18 -39 61
-38 86 3 122 -1 118 -13 -5 -15 -60 -30 -68 -19 -3 4 -27 10 -53 13 -46 5 -48
5 -43 -16 20 -82 17 -154 -9 -218 -7 -16 2 -18 94 -18 l101 0 -1 175 0 175
-24 0 c-13 0 -26 6 -28 13 -4 10 -6 10 -6 0z m-61 -213 c0 -5 -2 -10 -4 -10
-3 0 -8 5 -11 10 -3 6 -1 10 4 10 6 0 11 -4 11 -10z"/>
<path d="M1040 356 c0 -2 7 -7 16 -10 8 -3 12 -2 9 4 -6 10 -25 14 -25 6z"/>
<path d="M855 290 l-30 -8 27 -1 c15 0 30 4 33 9 3 6 5 9 3 9 -2 -1 -16 -5
-33 -9z"/>
<path d="M40 170 c0 -5 9 -10 21 -10 11 0 17 5 14 10 -3 6 -13 10 -21 10 -8 0
-14 -4 -14 -10z"/>
<path d="M15 150 c-3 -5 3 -10 15 -10 12 0 18 5 15 10 -3 6 -10 10 -15 10 -5
0 -12 -4 -15 -10z"/>
<path d="M20 118 c0 -4 24 -7 53 -7 54 1 49 5 -15 11 -21 2 -38 0 -38 -4z"/>
<path d="M0 25 c0 -18 24 -25 83 -24 29 1 41 4 27 6 -14 3 -28 9 -31 15 -10
16 -79 19 -79 3z"/>
</g>
</svg>
